# xmcd
#
# Track frame offsets:
#	150
#	17162
#	29180
#	47325
#	62180
#	73915
#	85840
#	99862
#	114830
#	126597
#
# Disc length: 1911 seconds
#
# Revision: 2
# Processed by: cddbd v1.5.2PL0 Copyright (c) Steve Scherf et al.
# Submitted via: EasyCDDAExtractor 16.0.1.1
#
DISCID=8707750a
DTITLE=Patricia Conroy - Bad Day for Trains
DYEAR=1992
DGENRE=Country
TTITLE0=Bad Day For Trains
TTITLE1=My Baby Loves Me (Just the Way That I Am)
TTITLE2=What Do You Care
TTITLE3=Blank Pages
TTITLE4=Still Life With A Heartache
TTITLE5=Talkin' To A Stranger
TTITLE6=Keep Me From Blowin' Away
TTITLE7=Johnny's Too Smart
TTITLE8=Here We Go Again
TTITLE9=Cat and Mouse
EXTD=YEAR: 1992
EXTT0=
EXTT1=
EXTT2=
EXTT3=
EXTT4=
EXTT5=
EXTT6=
EXTT7=
EXTT8=
EXTT9=
PLAYORDER=
